%TF.GenerationSoftware,KiCad,Pcbnew,(6.0.10)*%
%TF.CreationDate,2023-05-18T02:01:34+05:30*%
%TF.ProjectId,EVM_741_signal_routing,45564d5f-3734-4315-9f73-69676e616c5f,rev?*%
%TF.SameCoordinates,Original*%
%TF.FileFunction,Legend,Top*%
%TF.FilePolarity,Positive*%
%FSLAX46Y46*%
G04 Gerber Fmt 4.6, Leading zero omitted, Abs format (unit mm)*
G04 Created by KiCad (PCBNEW (6.0.10)) date 2023-05-18 02:01:34*
%MOMM*%
%LPD*%
G01*
G04 APERTURE LIST*
%ADD10C,0.329000*%
%ADD11C,0.150000*%
%ADD12C,0.200000*%
%ADD13C,0.100000*%
%ADD14C,0.300000*%
%ADD15C,0.120000*%
G04 APERTURE END LIST*
D10*
X112483300Y-80213200D02*
G75*
G03*
X112483300Y-80213200I-164500J0D01*
G01*
D11*
G36*
X112014000Y-80899000D02*
G01*
X112014000Y-82931000D01*
X110490000Y-83820000D01*
X110490000Y-80010000D01*
X112014000Y-80899000D01*
G37*
X112014000Y-80899000D02*
X112014000Y-82931000D01*
X110490000Y-83820000D01*
X110490000Y-80010000D01*
X112014000Y-80899000D01*
G36*
X114300000Y-81915000D02*
G01*
X112649000Y-82677000D01*
X112649000Y-81153000D01*
X114300000Y-81915000D01*
G37*
X114300000Y-81915000D02*
X112649000Y-82677000D01*
X112649000Y-81153000D01*
X114300000Y-81915000D01*
X109855000Y-79375000D02*
X114935000Y-79375000D01*
X114935000Y-79375000D02*
X114935000Y-84455000D01*
X114935000Y-84455000D02*
X109855000Y-84455000D01*
X109855000Y-84455000D02*
X109855000Y-79375000D01*
D12*
X102770571Y-83816000D02*
X103342000Y-83816000D01*
X102613428Y-84158857D02*
X103163428Y-82958857D01*
X103413428Y-84158857D01*
X103913428Y-83358857D02*
X103813428Y-84158857D01*
X103899142Y-83473142D02*
X103963428Y-83416000D01*
X104084857Y-83358857D01*
X104256285Y-83358857D01*
X104363428Y-83416000D01*
X104406285Y-83530285D01*
X104327714Y-84158857D01*
X105413428Y-84158857D02*
X105492000Y-83530285D01*
X105449142Y-83416000D01*
X105342000Y-83358857D01*
X105113428Y-83358857D01*
X104992000Y-83416000D01*
X105420571Y-84101714D02*
X105299142Y-84158857D01*
X105013428Y-84158857D01*
X104906285Y-84101714D01*
X104863428Y-83987428D01*
X104877714Y-83873142D01*
X104949142Y-83758857D01*
X105070571Y-83701714D01*
X105356285Y-83701714D01*
X105477714Y-83644571D01*
X106156285Y-84158857D02*
X106049142Y-84101714D01*
X106006285Y-83987428D01*
X106134857Y-82958857D01*
X106784857Y-84158857D02*
X106677714Y-84101714D01*
X106627714Y-84044571D01*
X106584857Y-83930285D01*
X106627714Y-83587428D01*
X106699142Y-83473142D01*
X106763428Y-83416000D01*
X106884857Y-83358857D01*
X107056285Y-83358857D01*
X107163428Y-83416000D01*
X107213428Y-83473142D01*
X107256285Y-83587428D01*
X107213428Y-83930285D01*
X107142000Y-84044571D01*
X107077714Y-84101714D01*
X106956285Y-84158857D01*
X106784857Y-84158857D01*
X108313428Y-83358857D02*
X108192000Y-84330285D01*
X108120571Y-84444571D01*
X108056285Y-84501714D01*
X107934857Y-84558857D01*
X107763428Y-84558857D01*
X107656285Y-84501714D01*
X108220571Y-84101714D02*
X108099142Y-84158857D01*
X107870571Y-84158857D01*
X107763428Y-84101714D01*
X107713428Y-84044571D01*
X107670571Y-83930285D01*
X107713428Y-83587428D01*
X107784857Y-83473142D01*
X107849142Y-83416000D01*
X107970571Y-83358857D01*
X108199142Y-83358857D01*
X108306285Y-83416000D01*
X102784857Y-86090857D02*
X102934857Y-84890857D01*
X103456285Y-85290857D02*
X103356285Y-86090857D01*
X103442000Y-85405142D02*
X103506285Y-85348000D01*
X103627714Y-85290857D01*
X103799142Y-85290857D01*
X103906285Y-85348000D01*
X103949142Y-85462285D01*
X103870571Y-86090857D01*
X104392000Y-86033714D02*
X104499142Y-86090857D01*
X104727714Y-86090857D01*
X104849142Y-86033714D01*
X104920571Y-85919428D01*
X104927714Y-85862285D01*
X104884857Y-85748000D01*
X104777714Y-85690857D01*
X104606285Y-85690857D01*
X104499142Y-85633714D01*
X104456285Y-85519428D01*
X104463428Y-85462285D01*
X104534857Y-85348000D01*
X104656285Y-85290857D01*
X104827714Y-85290857D01*
X104934857Y-85348000D01*
X105342000Y-85290857D02*
X105799142Y-85290857D01*
X105563428Y-84890857D02*
X105434857Y-85919428D01*
X105477714Y-86033714D01*
X105584857Y-86090857D01*
X105699142Y-86090857D01*
X106099142Y-86090857D02*
X106199142Y-85290857D01*
X106170571Y-85519428D02*
X106242000Y-85405142D01*
X106306285Y-85348000D01*
X106427714Y-85290857D01*
X106542000Y-85290857D01*
X107456285Y-85290857D02*
X107356285Y-86090857D01*
X106942000Y-85290857D02*
X106863428Y-85919428D01*
X106906285Y-86033714D01*
X107013428Y-86090857D01*
X107184857Y-86090857D01*
X107306285Y-86033714D01*
X107370571Y-85976571D01*
X107927714Y-86090857D02*
X108027714Y-85290857D01*
X108013428Y-85405142D02*
X108077714Y-85348000D01*
X108199142Y-85290857D01*
X108370571Y-85290857D01*
X108477714Y-85348000D01*
X108520571Y-85462285D01*
X108442000Y-86090857D01*
X108520571Y-85462285D02*
X108592000Y-85348000D01*
X108713428Y-85290857D01*
X108884857Y-85290857D01*
X108992000Y-85348000D01*
X109034857Y-85462285D01*
X108956285Y-86090857D01*
X109992000Y-86033714D02*
X109870571Y-86090857D01*
X109642000Y-86090857D01*
X109534857Y-86033714D01*
X109492000Y-85919428D01*
X109549142Y-85462285D01*
X109620571Y-85348000D01*
X109742000Y-85290857D01*
X109970571Y-85290857D01*
X110077714Y-85348000D01*
X110120571Y-85462285D01*
X110106285Y-85576571D01*
X109520571Y-85690857D01*
X110656285Y-85290857D02*
X110556285Y-86090857D01*
X110642000Y-85405142D02*
X110706285Y-85348000D01*
X110827714Y-85290857D01*
X110999142Y-85290857D01*
X111106285Y-85348000D01*
X111149142Y-85462285D01*
X111070571Y-86090857D01*
X111570571Y-85290857D02*
X112027714Y-85290857D01*
X111792000Y-84890857D02*
X111663428Y-85919428D01*
X111706285Y-86033714D01*
X111813428Y-86090857D01*
X111927714Y-86090857D01*
X112277714Y-86033714D02*
X112384857Y-86090857D01*
X112613428Y-86090857D01*
X112734857Y-86033714D01*
X112806285Y-85919428D01*
X112813428Y-85862285D01*
X112770571Y-85748000D01*
X112663428Y-85690857D01*
X112492000Y-85690857D01*
X112384857Y-85633714D01*
X112342000Y-85519428D01*
X112349142Y-85462285D01*
X112420571Y-85348000D01*
X112542000Y-85290857D01*
X112713428Y-85290857D01*
X112820571Y-85348000D01*
D13*
X103856392Y-40617857D02*
X104084964Y-40617857D01*
X104192107Y-40675000D01*
X104292107Y-40789285D01*
X104320678Y-41017857D01*
X104270678Y-41417857D01*
X104184964Y-41646428D01*
X104056392Y-41760714D01*
X103934964Y-41817857D01*
X103706392Y-41817857D01*
X103599250Y-41760714D01*
X103499250Y-41646428D01*
X103470678Y-41417857D01*
X103520678Y-41017857D01*
X103606392Y-40789285D01*
X103734964Y-40675000D01*
X103856392Y-40617857D01*
X105349250Y-41017857D02*
X105249250Y-41817857D01*
X104834964Y-41017857D02*
X104756392Y-41646428D01*
X104799250Y-41760714D01*
X104906392Y-41817857D01*
X105077821Y-41817857D01*
X105199250Y-41760714D01*
X105263535Y-41703571D01*
X105749250Y-41017857D02*
X106206392Y-41017857D01*
X105970678Y-40617857D02*
X105842107Y-41646428D01*
X105884964Y-41760714D01*
X105992107Y-41817857D01*
X106106392Y-41817857D01*
X106606392Y-41017857D02*
X106456392Y-42217857D01*
X106599250Y-41075000D02*
X106720678Y-41017857D01*
X106949250Y-41017857D01*
X107056392Y-41075000D01*
X107106392Y-41132142D01*
X107149250Y-41246428D01*
X107106392Y-41589285D01*
X107034964Y-41703571D01*
X106970678Y-41760714D01*
X106849250Y-41817857D01*
X106620678Y-41817857D01*
X106513535Y-41760714D01*
X108206392Y-41017857D02*
X108106392Y-41817857D01*
X107692107Y-41017857D02*
X107613535Y-41646428D01*
X107656392Y-41760714D01*
X107763535Y-41817857D01*
X107934964Y-41817857D01*
X108056392Y-41760714D01*
X108120678Y-41703571D01*
X108606392Y-41017857D02*
X109063535Y-41017857D01*
X108827821Y-40617857D02*
X108699250Y-41646428D01*
X108742107Y-41760714D01*
X108849250Y-41817857D01*
X108963535Y-41817857D01*
X110227821Y-41760714D02*
X110392107Y-41817857D01*
X110677821Y-41817857D01*
X110799250Y-41760714D01*
X110863535Y-41703571D01*
X110934964Y-41589285D01*
X110949250Y-41475000D01*
X110906392Y-41360714D01*
X110856392Y-41303571D01*
X110749250Y-41246428D01*
X110527821Y-41189285D01*
X110420678Y-41132142D01*
X110370678Y-41075000D01*
X110327821Y-40960714D01*
X110342107Y-40846428D01*
X110413535Y-40732142D01*
X110477821Y-40675000D01*
X110599250Y-40617857D01*
X110884964Y-40617857D01*
X111049250Y-40675000D01*
X111349250Y-41017857D02*
X111806392Y-41017857D01*
X111570678Y-40617857D02*
X111442107Y-41646428D01*
X111484964Y-41760714D01*
X111592107Y-41817857D01*
X111706392Y-41817857D01*
X112620678Y-41817857D02*
X112699250Y-41189285D01*
X112656392Y-41075000D01*
X112549250Y-41017857D01*
X112320678Y-41017857D01*
X112199250Y-41075000D01*
X112627821Y-41760714D02*
X112506392Y-41817857D01*
X112220678Y-41817857D01*
X112113535Y-41760714D01*
X112070678Y-41646428D01*
X112084964Y-41532142D01*
X112156392Y-41417857D01*
X112277821Y-41360714D01*
X112563535Y-41360714D01*
X112684964Y-41303571D01*
X113806392Y-41017857D02*
X113684964Y-41989285D01*
X113613535Y-42103571D01*
X113549250Y-42160714D01*
X113427821Y-42217857D01*
X113256392Y-42217857D01*
X113149250Y-42160714D01*
X113713535Y-41760714D02*
X113592107Y-41817857D01*
X113363535Y-41817857D01*
X113256392Y-41760714D01*
X113206392Y-41703571D01*
X113163535Y-41589285D01*
X113206392Y-41246428D01*
X113277821Y-41132142D01*
X113342107Y-41075000D01*
X113463535Y-41017857D01*
X113692107Y-41017857D01*
X113799250Y-41075000D01*
X114742107Y-41760714D02*
X114620678Y-41817857D01*
X114392107Y-41817857D01*
X114284964Y-41760714D01*
X114242107Y-41646428D01*
X114299250Y-41189285D01*
X114370678Y-41075000D01*
X114492107Y-41017857D01*
X114720678Y-41017857D01*
X114827821Y-41075000D01*
X114870678Y-41189285D01*
X114856392Y-41303571D01*
X114270678Y-41417857D01*
D11*
X100965000Y-87630000D02*
X100965000Y-38735000D01*
X69215000Y-87630000D02*
X69215000Y-38735000D01*
X81915000Y-87630000D02*
X81915000Y-38735000D01*
D14*
X103717130Y-77377942D02*
X103050464Y-77377942D01*
X102633797Y-78425561D02*
X103586178Y-78425561D01*
X103836178Y-76425561D01*
X102883797Y-76425561D01*
X104621892Y-76996990D02*
X105574273Y-76996990D01*
X104502845Y-76425561D02*
X104919511Y-78425561D01*
X105836178Y-76425561D01*
X106252845Y-78425561D02*
X106502845Y-76425561D01*
X106990940Y-77854133D01*
X107836178Y-76425561D01*
X107586178Y-78425561D01*
X110121892Y-76425561D02*
X111455226Y-76425561D01*
X110348083Y-78425561D01*
X112990940Y-77092228D02*
X112824273Y-78425561D01*
X112609988Y-76330323D02*
X111955226Y-77758895D01*
X113193321Y-77758895D01*
X114919511Y-78425561D02*
X113776654Y-78425561D01*
X114348083Y-78425561D02*
X114598083Y-76425561D01*
X114371892Y-76711276D01*
X114157607Y-76901752D01*
X113955226Y-76996990D01*
D13*
X87440678Y-40675000D02*
X87333535Y-40617857D01*
X87162107Y-40617857D01*
X86983535Y-40675000D01*
X86854964Y-40789285D01*
X86783535Y-40903571D01*
X86697821Y-41132142D01*
X86676392Y-41303571D01*
X86704964Y-41532142D01*
X86747821Y-41646428D01*
X86847821Y-41760714D01*
X87012107Y-41817857D01*
X87126392Y-41817857D01*
X87304964Y-41760714D01*
X87369250Y-41703571D01*
X87419250Y-41303571D01*
X87190678Y-41303571D01*
X88383535Y-41817857D02*
X88462107Y-41189285D01*
X88419250Y-41075000D01*
X88312107Y-41017857D01*
X88083535Y-41017857D01*
X87962107Y-41075000D01*
X88390678Y-41760714D02*
X88269250Y-41817857D01*
X87983535Y-41817857D01*
X87876392Y-41760714D01*
X87833535Y-41646428D01*
X87847821Y-41532142D01*
X87919250Y-41417857D01*
X88040678Y-41360714D01*
X88326392Y-41360714D01*
X88447821Y-41303571D01*
X88954964Y-41817857D02*
X89054964Y-41017857D01*
X89104964Y-40617857D02*
X89040678Y-40675000D01*
X89090678Y-40732142D01*
X89154964Y-40675000D01*
X89104964Y-40617857D01*
X89090678Y-40732142D01*
X89626392Y-41017857D02*
X89526392Y-41817857D01*
X89612107Y-41132142D02*
X89676392Y-41075000D01*
X89797821Y-41017857D01*
X89969250Y-41017857D01*
X90076392Y-41075000D01*
X90119250Y-41189285D01*
X90040678Y-41817857D01*
X91476392Y-41760714D02*
X91640678Y-41817857D01*
X91926392Y-41817857D01*
X92047821Y-41760714D01*
X92112107Y-41703571D01*
X92183535Y-41589285D01*
X92197821Y-41475000D01*
X92154964Y-41360714D01*
X92104964Y-41303571D01*
X91997821Y-41246428D01*
X91776392Y-41189285D01*
X91669250Y-41132142D01*
X91619250Y-41075000D01*
X91576392Y-40960714D01*
X91590678Y-40846428D01*
X91662107Y-40732142D01*
X91726392Y-40675000D01*
X91847821Y-40617857D01*
X92133535Y-40617857D01*
X92297821Y-40675000D01*
X92597821Y-41017857D02*
X93054964Y-41017857D01*
X92819250Y-40617857D02*
X92690678Y-41646428D01*
X92733535Y-41760714D01*
X92840678Y-41817857D01*
X92954964Y-41817857D01*
X93869250Y-41817857D02*
X93947821Y-41189285D01*
X93904964Y-41075000D01*
X93797821Y-41017857D01*
X93569250Y-41017857D01*
X93447821Y-41075000D01*
X93876392Y-41760714D02*
X93754964Y-41817857D01*
X93469250Y-41817857D01*
X93362107Y-41760714D01*
X93319250Y-41646428D01*
X93333535Y-41532142D01*
X93404964Y-41417857D01*
X93526392Y-41360714D01*
X93812107Y-41360714D01*
X93933535Y-41303571D01*
X95054964Y-41017857D02*
X94933535Y-41989285D01*
X94862107Y-42103571D01*
X94797821Y-42160714D01*
X94676392Y-42217857D01*
X94504964Y-42217857D01*
X94397821Y-42160714D01*
X94962107Y-41760714D02*
X94840678Y-41817857D01*
X94612107Y-41817857D01*
X94504964Y-41760714D01*
X94454964Y-41703571D01*
X94412107Y-41589285D01*
X94454964Y-41246428D01*
X94526392Y-41132142D01*
X94590678Y-41075000D01*
X94712107Y-41017857D01*
X94940678Y-41017857D01*
X95047821Y-41075000D01*
X95990678Y-41760714D02*
X95869250Y-41817857D01*
X95640678Y-41817857D01*
X95533535Y-41760714D01*
X95490678Y-41646428D01*
X95547821Y-41189285D01*
X95619250Y-41075000D01*
X95740678Y-41017857D01*
X95969250Y-41017857D01*
X96076392Y-41075000D01*
X96119250Y-41189285D01*
X96104964Y-41303571D01*
X95519250Y-41417857D01*
X51531392Y-41817857D02*
X51681392Y-40617857D01*
X51967107Y-40617857D01*
X52131392Y-40675000D01*
X52231392Y-40789285D01*
X52274250Y-40903571D01*
X52302821Y-41132142D01*
X52281392Y-41303571D01*
X52195678Y-41532142D01*
X52124250Y-41646428D01*
X51995678Y-41760714D01*
X51817107Y-41817857D01*
X51531392Y-41817857D01*
X52731392Y-41817857D02*
X52831392Y-41017857D01*
X52881392Y-40617857D02*
X52817107Y-40675000D01*
X52867107Y-40732142D01*
X52931392Y-40675000D01*
X52881392Y-40617857D01*
X52867107Y-40732142D01*
X53231392Y-41017857D02*
X53688535Y-41017857D01*
X53302821Y-41817857D02*
X53431392Y-40789285D01*
X53502821Y-40675000D01*
X53624250Y-40617857D01*
X53738535Y-40617857D01*
X53917107Y-41017857D02*
X54374250Y-41017857D01*
X53988535Y-41817857D02*
X54117107Y-40789285D01*
X54188535Y-40675000D01*
X54309964Y-40617857D01*
X54424250Y-40617857D01*
X55574250Y-41475000D02*
X56145678Y-41475000D01*
X55417107Y-41817857D02*
X55967107Y-40617857D01*
X56217107Y-41817857D01*
X56617107Y-41817857D02*
X56717107Y-41017857D01*
X56702821Y-41132142D02*
X56767107Y-41075000D01*
X56888535Y-41017857D01*
X57059964Y-41017857D01*
X57167107Y-41075000D01*
X57209964Y-41189285D01*
X57131392Y-41817857D01*
X57209964Y-41189285D02*
X57281392Y-41075000D01*
X57402821Y-41017857D01*
X57574250Y-41017857D01*
X57681392Y-41075000D01*
X57724250Y-41189285D01*
X57645678Y-41817857D01*
X58317107Y-41017857D02*
X58167107Y-42217857D01*
X58309964Y-41075000D02*
X58431392Y-41017857D01*
X58659964Y-41017857D01*
X58767107Y-41075000D01*
X58817107Y-41132142D01*
X58859964Y-41246428D01*
X58817107Y-41589285D01*
X58745678Y-41703571D01*
X58681392Y-41760714D01*
X58559964Y-41817857D01*
X58331392Y-41817857D01*
X58224250Y-41760714D01*
X72187107Y-41189285D02*
X72351392Y-41246428D01*
X72401392Y-41303571D01*
X72444250Y-41417857D01*
X72422821Y-41589285D01*
X72351392Y-41703571D01*
X72287107Y-41760714D01*
X72165678Y-41817857D01*
X71708535Y-41817857D01*
X71858535Y-40617857D01*
X72258535Y-40617857D01*
X72365678Y-40675000D01*
X72415678Y-40732142D01*
X72458535Y-40846428D01*
X72444250Y-40960714D01*
X72372821Y-41075000D01*
X72308535Y-41132142D01*
X72187107Y-41189285D01*
X71787107Y-41189285D01*
X72908535Y-41817857D02*
X73008535Y-41017857D01*
X73058535Y-40617857D02*
X72994250Y-40675000D01*
X73044250Y-40732142D01*
X73108535Y-40675000D01*
X73058535Y-40617857D01*
X73044250Y-40732142D01*
X73994250Y-41817857D02*
X74072821Y-41189285D01*
X74029964Y-41075000D01*
X73922821Y-41017857D01*
X73694250Y-41017857D01*
X73572821Y-41075000D01*
X74001392Y-41760714D02*
X73879964Y-41817857D01*
X73594250Y-41817857D01*
X73487107Y-41760714D01*
X73444250Y-41646428D01*
X73458535Y-41532142D01*
X73529964Y-41417857D01*
X73651392Y-41360714D01*
X73937107Y-41360714D01*
X74058535Y-41303571D01*
X74515678Y-41760714D02*
X74622821Y-41817857D01*
X74851392Y-41817857D01*
X74972821Y-41760714D01*
X75044250Y-41646428D01*
X75051392Y-41589285D01*
X75008535Y-41475000D01*
X74901392Y-41417857D01*
X74729964Y-41417857D01*
X74622821Y-41360714D01*
X74579964Y-41246428D01*
X74587107Y-41189285D01*
X74658535Y-41075000D01*
X74779964Y-41017857D01*
X74951392Y-41017857D01*
X75058535Y-41075000D01*
X77222821Y-40675000D02*
X77115678Y-40617857D01*
X76944250Y-40617857D01*
X76765678Y-40675000D01*
X76637107Y-40789285D01*
X76565678Y-40903571D01*
X76479964Y-41132142D01*
X76458535Y-41303571D01*
X76487107Y-41532142D01*
X76529964Y-41646428D01*
X76629964Y-41760714D01*
X76794250Y-41817857D01*
X76908535Y-41817857D01*
X77087107Y-41760714D01*
X77151392Y-41703571D01*
X77201392Y-41303571D01*
X76972821Y-41303571D01*
X78115678Y-41760714D02*
X77994250Y-41817857D01*
X77765678Y-41817857D01*
X77658535Y-41760714D01*
X77615678Y-41646428D01*
X77672821Y-41189285D01*
X77744250Y-41075000D01*
X77865678Y-41017857D01*
X78094250Y-41017857D01*
X78201392Y-41075000D01*
X78244250Y-41189285D01*
X78229964Y-41303571D01*
X77644250Y-41417857D01*
X78779964Y-41017857D02*
X78679964Y-41817857D01*
X78765678Y-41132142D02*
X78829964Y-41075000D01*
X78951392Y-41017857D01*
X79122821Y-41017857D01*
X79229964Y-41075000D01*
X79272821Y-41189285D01*
X79194250Y-41817857D01*
D11*
%TO.C,J14*%
X109752142Y-69512380D02*
X110085476Y-70512380D01*
X110418809Y-69512380D01*
X111180714Y-70464761D02*
X111085476Y-70512380D01*
X110895000Y-70512380D01*
X110799761Y-70464761D01*
X110752142Y-70417142D01*
X110704523Y-70321904D01*
X110704523Y-70036190D01*
X110752142Y-69940952D01*
X110799761Y-69893333D01*
X110895000Y-69845714D01*
X111085476Y-69845714D01*
X111180714Y-69893333D01*
X112037857Y-70464761D02*
X111942619Y-70512380D01*
X111752142Y-70512380D01*
X111656904Y-70464761D01*
X111609285Y-70417142D01*
X111561666Y-70321904D01*
X111561666Y-70036190D01*
X111609285Y-69940952D01*
X111656904Y-69893333D01*
X111752142Y-69845714D01*
X111942619Y-69845714D01*
X112037857Y-69893333D01*
X112466428Y-70131428D02*
X113228333Y-70131428D01*
X113466428Y-70607619D02*
X114228333Y-70607619D01*
X114895000Y-70512380D02*
X114895000Y-69988571D01*
X114847380Y-69893333D01*
X114752142Y-69845714D01*
X114561666Y-69845714D01*
X114466428Y-69893333D01*
X114895000Y-70464761D02*
X114799761Y-70512380D01*
X114561666Y-70512380D01*
X114466428Y-70464761D01*
X114418809Y-70369523D01*
X114418809Y-70274285D01*
X114466428Y-70179047D01*
X114561666Y-70131428D01*
X114799761Y-70131428D01*
X114895000Y-70083809D01*
%TO.C,J13*%
X109752142Y-42842380D02*
X110085476Y-43842380D01*
X110418809Y-42842380D01*
X111180714Y-43794761D02*
X111085476Y-43842380D01*
X110895000Y-43842380D01*
X110799761Y-43794761D01*
X110752142Y-43747142D01*
X110704523Y-43651904D01*
X110704523Y-43366190D01*
X110752142Y-43270952D01*
X110799761Y-43223333D01*
X110895000Y-43175714D01*
X111085476Y-43175714D01*
X111180714Y-43223333D01*
X112037857Y-43794761D02*
X111942619Y-43842380D01*
X111752142Y-43842380D01*
X111656904Y-43794761D01*
X111609285Y-43747142D01*
X111561666Y-43651904D01*
X111561666Y-43366190D01*
X111609285Y-43270952D01*
X111656904Y-43223333D01*
X111752142Y-43175714D01*
X111942619Y-43175714D01*
X112037857Y-43223333D01*
X112466428Y-43461428D02*
X113228333Y-43461428D01*
X112847380Y-43842380D02*
X112847380Y-43080476D01*
X113466428Y-43937619D02*
X114228333Y-43937619D01*
X114895000Y-43842380D02*
X114895000Y-43318571D01*
X114847380Y-43223333D01*
X114752142Y-43175714D01*
X114561666Y-43175714D01*
X114466428Y-43223333D01*
X114895000Y-43794761D02*
X114799761Y-43842380D01*
X114561666Y-43842380D01*
X114466428Y-43794761D01*
X114418809Y-43699523D01*
X114418809Y-43604285D01*
X114466428Y-43509047D01*
X114561666Y-43461428D01*
X114799761Y-43461428D01*
X114895000Y-43413809D01*
%TO.C,J12*%
X43021428Y-63004880D02*
X42926190Y-62957261D01*
X42878571Y-62909642D01*
X42830952Y-62814404D01*
X42830952Y-62528690D01*
X42878571Y-62433452D01*
X42926190Y-62385833D01*
X43021428Y-62338214D01*
X43164285Y-62338214D01*
X43259523Y-62385833D01*
X43307142Y-62433452D01*
X43354761Y-62528690D01*
X43354761Y-62814404D01*
X43307142Y-62909642D01*
X43259523Y-62957261D01*
X43164285Y-63004880D01*
X43021428Y-63004880D01*
X44211904Y-62338214D02*
X44211904Y-63004880D01*
X43783333Y-62338214D02*
X43783333Y-62862023D01*
X43830952Y-62957261D01*
X43926190Y-63004880D01*
X44069047Y-63004880D01*
X44164285Y-62957261D01*
X44211904Y-62909642D01*
X44545238Y-62338214D02*
X44926190Y-62338214D01*
X44688095Y-62004880D02*
X44688095Y-62862023D01*
X44735714Y-62957261D01*
X44830952Y-63004880D01*
X44926190Y-63004880D01*
X45021428Y-63100119D02*
X45783333Y-63100119D01*
X46021428Y-62338214D02*
X46021428Y-63195357D01*
X45973809Y-63290595D01*
X45878571Y-63338214D01*
X45830952Y-63338214D01*
X46021428Y-62004880D02*
X45973809Y-62052500D01*
X46021428Y-62100119D01*
X46069047Y-62052500D01*
X46021428Y-62004880D01*
X46021428Y-62100119D01*
%TO.C,J11*%
X110966428Y-63087380D02*
X110871190Y-63039761D01*
X110823571Y-62992142D01*
X110775952Y-62896904D01*
X110775952Y-62611190D01*
X110823571Y-62515952D01*
X110871190Y-62468333D01*
X110966428Y-62420714D01*
X111109285Y-62420714D01*
X111204523Y-62468333D01*
X111252142Y-62515952D01*
X111299761Y-62611190D01*
X111299761Y-62896904D01*
X111252142Y-62992142D01*
X111204523Y-63039761D01*
X111109285Y-63087380D01*
X110966428Y-63087380D01*
X112156904Y-62420714D02*
X112156904Y-63087380D01*
X111728333Y-62420714D02*
X111728333Y-62944523D01*
X111775952Y-63039761D01*
X111871190Y-63087380D01*
X112014047Y-63087380D01*
X112109285Y-63039761D01*
X112156904Y-62992142D01*
X112490238Y-62420714D02*
X112871190Y-62420714D01*
X112633095Y-62087380D02*
X112633095Y-62944523D01*
X112680714Y-63039761D01*
X112775952Y-63087380D01*
X112871190Y-63087380D01*
X112966428Y-63182619D02*
X113728333Y-63182619D01*
X113966428Y-62420714D02*
X113966428Y-63277857D01*
X113918809Y-63373095D01*
X113823571Y-63420714D01*
X113775952Y-63420714D01*
X113966428Y-62087380D02*
X113918809Y-62135000D01*
X113966428Y-62182619D01*
X114014047Y-62135000D01*
X113966428Y-62087380D01*
X113966428Y-62182619D01*
%TO.C,J10*%
X110752142Y-56102380D02*
X110656904Y-56054761D01*
X110609285Y-56007142D01*
X110561666Y-55911904D01*
X110561666Y-55626190D01*
X110609285Y-55530952D01*
X110656904Y-55483333D01*
X110752142Y-55435714D01*
X110895000Y-55435714D01*
X110990238Y-55483333D01*
X111037857Y-55530952D01*
X111085476Y-55626190D01*
X111085476Y-55911904D01*
X111037857Y-56007142D01*
X110990238Y-56054761D01*
X110895000Y-56102380D01*
X110752142Y-56102380D01*
X111942619Y-55435714D02*
X111942619Y-56102380D01*
X111514047Y-55435714D02*
X111514047Y-55959523D01*
X111561666Y-56054761D01*
X111656904Y-56102380D01*
X111799761Y-56102380D01*
X111895000Y-56054761D01*
X111942619Y-56007142D01*
X112275952Y-55435714D02*
X112656904Y-55435714D01*
X112418809Y-55102380D02*
X112418809Y-55959523D01*
X112466428Y-56054761D01*
X112561666Y-56102380D01*
X112656904Y-56102380D01*
X112752142Y-56197619D02*
X113514047Y-56197619D01*
X114180714Y-56102380D02*
X114180714Y-55578571D01*
X114133095Y-55483333D01*
X114037857Y-55435714D01*
X113847380Y-55435714D01*
X113752142Y-55483333D01*
X114180714Y-56054761D02*
X114085476Y-56102380D01*
X113847380Y-56102380D01*
X113752142Y-56054761D01*
X113704523Y-55959523D01*
X113704523Y-55864285D01*
X113752142Y-55769047D01*
X113847380Y-55721428D01*
X114085476Y-55721428D01*
X114180714Y-55673809D01*
%TO.C,J9*%
X66341666Y-55102380D02*
X66341666Y-55816666D01*
X66294047Y-55959523D01*
X66198809Y-56054761D01*
X66055952Y-56102380D01*
X65960714Y-56102380D01*
X66865476Y-56102380D02*
X67055952Y-56102380D01*
X67151190Y-56054761D01*
X67198809Y-56007142D01*
X67294047Y-55864285D01*
X67341666Y-55673809D01*
X67341666Y-55292857D01*
X67294047Y-55197619D01*
X67246428Y-55150000D01*
X67151190Y-55102380D01*
X66960714Y-55102380D01*
X66865476Y-55150000D01*
X66817857Y-55197619D01*
X66770238Y-55292857D01*
X66770238Y-55530952D01*
X66817857Y-55626190D01*
X66865476Y-55673809D01*
X66960714Y-55721428D01*
X67151190Y-55721428D01*
X67246428Y-55673809D01*
X67294047Y-55626190D01*
X67341666Y-55530952D01*
%TO.C,J8*%
X42545238Y-56102380D02*
X42545238Y-55435714D01*
X42545238Y-55102380D02*
X42497619Y-55150000D01*
X42545238Y-55197619D01*
X42592857Y-55150000D01*
X42545238Y-55102380D01*
X42545238Y-55197619D01*
X43021428Y-55435714D02*
X43021428Y-56102380D01*
X43021428Y-55530952D02*
X43069047Y-55483333D01*
X43164285Y-55435714D01*
X43307142Y-55435714D01*
X43402380Y-55483333D01*
X43450000Y-55578571D01*
X43450000Y-56102380D01*
X43926190Y-55721428D02*
X44688095Y-55721428D01*
X44307142Y-56102380D02*
X44307142Y-55340476D01*
X44926190Y-56197619D02*
X45688095Y-56197619D01*
X46354761Y-56102380D02*
X46354761Y-55578571D01*
X46307142Y-55483333D01*
X46211904Y-55435714D01*
X46021428Y-55435714D01*
X45926190Y-55483333D01*
X46354761Y-56054761D02*
X46259523Y-56102380D01*
X46021428Y-56102380D01*
X45926190Y-56054761D01*
X45878571Y-55959523D01*
X45878571Y-55864285D01*
X45926190Y-55769047D01*
X46021428Y-55721428D01*
X46259523Y-55721428D01*
X46354761Y-55673809D01*
%TO.C,J7*%
X42640476Y-42479880D02*
X42973809Y-43479880D01*
X43307142Y-42479880D01*
X44069047Y-43432261D02*
X43973809Y-43479880D01*
X43783333Y-43479880D01*
X43688095Y-43432261D01*
X43640476Y-43384642D01*
X43592857Y-43289404D01*
X43592857Y-43003690D01*
X43640476Y-42908452D01*
X43688095Y-42860833D01*
X43783333Y-42813214D01*
X43973809Y-42813214D01*
X44069047Y-42860833D01*
X44926190Y-43432261D02*
X44830952Y-43479880D01*
X44640476Y-43479880D01*
X44545238Y-43432261D01*
X44497619Y-43384642D01*
X44450000Y-43289404D01*
X44450000Y-43003690D01*
X44497619Y-42908452D01*
X44545238Y-42860833D01*
X44640476Y-42813214D01*
X44830952Y-42813214D01*
X44926190Y-42860833D01*
X45354761Y-43098928D02*
X46116666Y-43098928D01*
X45735714Y-43479880D02*
X45735714Y-42717976D01*
%TO.C,J4*%
X42640476Y-79944880D02*
X42973809Y-80944880D01*
X43307142Y-79944880D01*
X44069047Y-80897261D02*
X43973809Y-80944880D01*
X43783333Y-80944880D01*
X43688095Y-80897261D01*
X43640476Y-80849642D01*
X43592857Y-80754404D01*
X43592857Y-80468690D01*
X43640476Y-80373452D01*
X43688095Y-80325833D01*
X43783333Y-80278214D01*
X43973809Y-80278214D01*
X44069047Y-80325833D01*
X44926190Y-80897261D02*
X44830952Y-80944880D01*
X44640476Y-80944880D01*
X44545238Y-80897261D01*
X44497619Y-80849642D01*
X44450000Y-80754404D01*
X44450000Y-80468690D01*
X44497619Y-80373452D01*
X44545238Y-80325833D01*
X44640476Y-80278214D01*
X44830952Y-80278214D01*
X44926190Y-80325833D01*
X45354761Y-80563928D02*
X46116666Y-80563928D01*
%TO.C,J3*%
X43378571Y-50269880D02*
X43378571Y-49603214D01*
X43378571Y-49269880D02*
X43330952Y-49317500D01*
X43378571Y-49365119D01*
X43426190Y-49317500D01*
X43378571Y-49269880D01*
X43378571Y-49365119D01*
X43854761Y-49603214D02*
X43854761Y-50269880D01*
X43854761Y-49698452D02*
X43902380Y-49650833D01*
X43997619Y-49603214D01*
X44140476Y-49603214D01*
X44235714Y-49650833D01*
X44283333Y-49746071D01*
X44283333Y-50269880D01*
X44759523Y-49888928D02*
X45521428Y-49888928D01*
X45140476Y-50269880D02*
X45140476Y-49507976D01*
%TO.C,C1*%
X86662142Y-59299166D02*
X86709761Y-59346785D01*
X86757380Y-59489642D01*
X86757380Y-59584880D01*
X86709761Y-59727738D01*
X86614523Y-59822976D01*
X86519285Y-59870595D01*
X86328809Y-59918214D01*
X86185952Y-59918214D01*
X85995476Y-59870595D01*
X85900238Y-59822976D01*
X85805000Y-59727738D01*
X85757380Y-59584880D01*
X85757380Y-59489642D01*
X85805000Y-59346785D01*
X85852619Y-59299166D01*
X86757380Y-58346785D02*
X86757380Y-58918214D01*
X86757380Y-58632500D02*
X85757380Y-58632500D01*
X85900238Y-58727738D01*
X85995476Y-58822976D01*
X86043095Y-58918214D01*
%TO.C,D2*%
X57409880Y-59935595D02*
X56409880Y-59935595D01*
X56409880Y-59697500D01*
X56457500Y-59554642D01*
X56552738Y-59459404D01*
X56647976Y-59411785D01*
X56838452Y-59364166D01*
X56981309Y-59364166D01*
X57171785Y-59411785D01*
X57267023Y-59459404D01*
X57362261Y-59554642D01*
X57409880Y-59697500D01*
X57409880Y-59935595D01*
X56505119Y-58983214D02*
X56457500Y-58935595D01*
X56409880Y-58840357D01*
X56409880Y-58602261D01*
X56457500Y-58507023D01*
X56505119Y-58459404D01*
X56600357Y-58411785D01*
X56695595Y-58411785D01*
X56838452Y-58459404D01*
X57409880Y-59030833D01*
X57409880Y-58411785D01*
%TO.C,Q17*%
X95937619Y-72403928D02*
X95890000Y-72499166D01*
X95794761Y-72594404D01*
X95651904Y-72737261D01*
X95604285Y-72832500D01*
X95604285Y-72927738D01*
X95842380Y-72880119D02*
X95794761Y-72975357D01*
X95699523Y-73070595D01*
X95509047Y-73118214D01*
X95175714Y-73118214D01*
X94985238Y-73070595D01*
X94890000Y-72975357D01*
X94842380Y-72880119D01*
X94842380Y-72689642D01*
X94890000Y-72594404D01*
X94985238Y-72499166D01*
X95175714Y-72451547D01*
X95509047Y-72451547D01*
X95699523Y-72499166D01*
X95794761Y-72594404D01*
X95842380Y-72689642D01*
X95842380Y-72880119D01*
X95842380Y-71499166D02*
X95842380Y-72070595D01*
X95842380Y-71784880D02*
X94842380Y-71784880D01*
X94985238Y-71880119D01*
X95080476Y-71975357D01*
X95128095Y-72070595D01*
X94842380Y-71165833D02*
X94842380Y-70499166D01*
X95842380Y-70927738D01*
%TO.C,Q22*%
X83237619Y-72403928D02*
X83190000Y-72499166D01*
X83094761Y-72594404D01*
X82951904Y-72737261D01*
X82904285Y-72832500D01*
X82904285Y-72927738D01*
X83142380Y-72880119D02*
X83094761Y-72975357D01*
X82999523Y-73070595D01*
X82809047Y-73118214D01*
X82475714Y-73118214D01*
X82285238Y-73070595D01*
X82190000Y-72975357D01*
X82142380Y-72880119D01*
X82142380Y-72689642D01*
X82190000Y-72594404D01*
X82285238Y-72499166D01*
X82475714Y-72451547D01*
X82809047Y-72451547D01*
X82999523Y-72499166D01*
X83094761Y-72594404D01*
X83142380Y-72689642D01*
X83142380Y-72880119D01*
X82237619Y-72070595D02*
X82190000Y-72022976D01*
X82142380Y-71927738D01*
X82142380Y-71689642D01*
X82190000Y-71594404D01*
X82237619Y-71546785D01*
X82332857Y-71499166D01*
X82428095Y-71499166D01*
X82570952Y-71546785D01*
X83142380Y-72118214D01*
X83142380Y-71499166D01*
X82237619Y-71118214D02*
X82190000Y-71070595D01*
X82142380Y-70975357D01*
X82142380Y-70737261D01*
X82190000Y-70642023D01*
X82237619Y-70594404D01*
X82332857Y-70546785D01*
X82428095Y-70546785D01*
X82570952Y-70594404D01*
X83142380Y-71165833D01*
X83142380Y-70546785D01*
%TO.C,Q11*%
X76887619Y-72403928D02*
X76840000Y-72499166D01*
X76744761Y-72594404D01*
X76601904Y-72737261D01*
X76554285Y-72832500D01*
X76554285Y-72927738D01*
X76792380Y-72880119D02*
X76744761Y-72975357D01*
X76649523Y-73070595D01*
X76459047Y-73118214D01*
X76125714Y-73118214D01*
X75935238Y-73070595D01*
X75840000Y-72975357D01*
X75792380Y-72880119D01*
X75792380Y-72689642D01*
X75840000Y-72594404D01*
X75935238Y-72499166D01*
X76125714Y-72451547D01*
X76459047Y-72451547D01*
X76649523Y-72499166D01*
X76744761Y-72594404D01*
X76792380Y-72689642D01*
X76792380Y-72880119D01*
X76792380Y-71499166D02*
X76792380Y-72070595D01*
X76792380Y-71784880D02*
X75792380Y-71784880D01*
X75935238Y-71880119D01*
X76030476Y-71975357D01*
X76078095Y-72070595D01*
X76792380Y-70546785D02*
X76792380Y-71118214D01*
X76792380Y-70832500D02*
X75792380Y-70832500D01*
X75935238Y-70927738D01*
X76030476Y-71022976D01*
X76078095Y-71118214D01*
%TO.C,Q7*%
X44255119Y-70580238D02*
X44207500Y-70675476D01*
X44112261Y-70770714D01*
X43969404Y-70913571D01*
X43921785Y-71008809D01*
X43921785Y-71104047D01*
X44159880Y-71056428D02*
X44112261Y-71151666D01*
X44017023Y-71246904D01*
X43826547Y-71294523D01*
X43493214Y-71294523D01*
X43302738Y-71246904D01*
X43207500Y-71151666D01*
X43159880Y-71056428D01*
X43159880Y-70865952D01*
X43207500Y-70770714D01*
X43302738Y-70675476D01*
X43493214Y-70627857D01*
X43826547Y-70627857D01*
X44017023Y-70675476D01*
X44112261Y-70770714D01*
X44159880Y-70865952D01*
X44159880Y-71056428D01*
X43159880Y-70294523D02*
X43159880Y-69627857D01*
X44159880Y-70056428D01*
%TO.C,Q13*%
X91847619Y-46578928D02*
X91800000Y-46674166D01*
X91704761Y-46769404D01*
X91561904Y-46912261D01*
X91514285Y-47007500D01*
X91514285Y-47102738D01*
X91752380Y-47055119D02*
X91704761Y-47150357D01*
X91609523Y-47245595D01*
X91419047Y-47293214D01*
X91085714Y-47293214D01*
X90895238Y-47245595D01*
X90800000Y-47150357D01*
X90752380Y-47055119D01*
X90752380Y-46864642D01*
X90800000Y-46769404D01*
X90895238Y-46674166D01*
X91085714Y-46626547D01*
X91419047Y-46626547D01*
X91609523Y-46674166D01*
X91704761Y-46769404D01*
X91752380Y-46864642D01*
X91752380Y-47055119D01*
X91752380Y-45674166D02*
X91752380Y-46245595D01*
X91752380Y-45959880D02*
X90752380Y-45959880D01*
X90895238Y-46055119D01*
X90990476Y-46150357D01*
X91038095Y-46245595D01*
X90752380Y-45340833D02*
X90752380Y-44721785D01*
X91133333Y-45055119D01*
X91133333Y-44912261D01*
X91180952Y-44817023D01*
X91228571Y-44769404D01*
X91323809Y-44721785D01*
X91561904Y-44721785D01*
X91657142Y-44769404D01*
X91704761Y-44817023D01*
X91752380Y-44912261D01*
X91752380Y-45197976D01*
X91704761Y-45293214D01*
X91657142Y-45340833D01*
%TO.C,Q1*%
X50605119Y-52407738D02*
X50557500Y-52502976D01*
X50462261Y-52598214D01*
X50319404Y-52741071D01*
X50271785Y-52836309D01*
X50271785Y-52931547D01*
X50509880Y-52883928D02*
X50462261Y-52979166D01*
X50367023Y-53074404D01*
X50176547Y-53122023D01*
X49843214Y-53122023D01*
X49652738Y-53074404D01*
X49557500Y-52979166D01*
X49509880Y-52883928D01*
X49509880Y-52693452D01*
X49557500Y-52598214D01*
X49652738Y-52502976D01*
X49843214Y-52455357D01*
X50176547Y-52455357D01*
X50367023Y-52502976D01*
X50462261Y-52598214D01*
X50509880Y-52693452D01*
X50509880Y-52883928D01*
X50509880Y-51502976D02*
X50509880Y-52074404D01*
X50509880Y-51788690D02*
X49509880Y-51788690D01*
X49652738Y-51883928D01*
X49747976Y-51979166D01*
X49795595Y-52074404D01*
%TO.C,Q18*%
X92127619Y-59703928D02*
X92080000Y-59799166D01*
X91984761Y-59894404D01*
X91841904Y-60037261D01*
X91794285Y-60132500D01*
X91794285Y-60227738D01*
X92032380Y-60180119D02*
X91984761Y-60275357D01*
X91889523Y-60370595D01*
X91699047Y-60418214D01*
X91365714Y-60418214D01*
X91175238Y-60370595D01*
X91080000Y-60275357D01*
X91032380Y-60180119D01*
X91032380Y-59989642D01*
X91080000Y-59894404D01*
X91175238Y-59799166D01*
X91365714Y-59751547D01*
X91699047Y-59751547D01*
X91889523Y-59799166D01*
X91984761Y-59894404D01*
X92032380Y-59989642D01*
X92032380Y-60180119D01*
X92032380Y-58799166D02*
X92032380Y-59370595D01*
X92032380Y-59084880D02*
X91032380Y-59084880D01*
X91175238Y-59180119D01*
X91270476Y-59275357D01*
X91318095Y-59370595D01*
X91460952Y-58227738D02*
X91413333Y-58322976D01*
X91365714Y-58370595D01*
X91270476Y-58418214D01*
X91222857Y-58418214D01*
X91127619Y-58370595D01*
X91080000Y-58322976D01*
X91032380Y-58227738D01*
X91032380Y-58037261D01*
X91080000Y-57942023D01*
X91127619Y-57894404D01*
X91222857Y-57846785D01*
X91270476Y-57846785D01*
X91365714Y-57894404D01*
X91413333Y-57942023D01*
X91460952Y-58037261D01*
X91460952Y-58227738D01*
X91508571Y-58322976D01*
X91556190Y-58370595D01*
X91651428Y-58418214D01*
X91841904Y-58418214D01*
X91937142Y-58370595D01*
X91984761Y-58322976D01*
X92032380Y-58227738D01*
X92032380Y-58037261D01*
X91984761Y-57942023D01*
X91937142Y-57894404D01*
X91841904Y-57846785D01*
X91651428Y-57846785D01*
X91556190Y-57894404D01*
X91508571Y-57942023D01*
X91460952Y-58037261D01*
%TO.C,R5*%
X81012380Y-59299166D02*
X80536190Y-59632500D01*
X81012380Y-59870595D02*
X80012380Y-59870595D01*
X80012380Y-59489642D01*
X80060000Y-59394404D01*
X80107619Y-59346785D01*
X80202857Y-59299166D01*
X80345714Y-59299166D01*
X80440952Y-59346785D01*
X80488571Y-59394404D01*
X80536190Y-59489642D01*
X80536190Y-59870595D01*
X80012380Y-58394404D02*
X80012380Y-58870595D01*
X80488571Y-58918214D01*
X80440952Y-58870595D01*
X80393333Y-58775357D01*
X80393333Y-58537261D01*
X80440952Y-58442023D01*
X80488571Y-58394404D01*
X80583809Y-58346785D01*
X80821904Y-58346785D01*
X80917142Y-58394404D01*
X80964761Y-58442023D01*
X81012380Y-58537261D01*
X81012380Y-58775357D01*
X80964761Y-58870595D01*
X80917142Y-58918214D01*
%TO.C,J2*%
X66341666Y-49269880D02*
X66341666Y-49984166D01*
X66294047Y-50127023D01*
X66198809Y-50222261D01*
X66055952Y-50269880D01*
X65960714Y-50269880D01*
X66770238Y-49365119D02*
X66817857Y-49317500D01*
X66913095Y-49269880D01*
X67151190Y-49269880D01*
X67246428Y-49317500D01*
X67294047Y-49365119D01*
X67341666Y-49460357D01*
X67341666Y-49555595D01*
X67294047Y-49698452D01*
X66722619Y-50269880D01*
X67341666Y-50269880D01*
%TO.C,J1*%
X42069047Y-75034880D02*
X41973809Y-74987261D01*
X41926190Y-74939642D01*
X41878571Y-74844404D01*
X41878571Y-74558690D01*
X41926190Y-74463452D01*
X41973809Y-74415833D01*
X42069047Y-74368214D01*
X42211904Y-74368214D01*
X42307142Y-74415833D01*
X42354761Y-74463452D01*
X42402380Y-74558690D01*
X42402380Y-74844404D01*
X42354761Y-74939642D01*
X42307142Y-74987261D01*
X42211904Y-75034880D01*
X42069047Y-75034880D01*
X42688095Y-74368214D02*
X43069047Y-74368214D01*
X42830952Y-75034880D02*
X42830952Y-74177738D01*
X42878571Y-74082500D01*
X42973809Y-74034880D01*
X43069047Y-74034880D01*
X43259523Y-74368214D02*
X43640476Y-74368214D01*
X43402380Y-75034880D02*
X43402380Y-74177738D01*
X43450000Y-74082500D01*
X43545238Y-74034880D01*
X43640476Y-74034880D01*
X43926190Y-74987261D02*
X44021428Y-75034880D01*
X44211904Y-75034880D01*
X44307142Y-74987261D01*
X44354761Y-74892023D01*
X44354761Y-74844404D01*
X44307142Y-74749166D01*
X44211904Y-74701547D01*
X44069047Y-74701547D01*
X43973809Y-74653928D01*
X43926190Y-74558690D01*
X43926190Y-74511071D01*
X43973809Y-74415833D01*
X44069047Y-74368214D01*
X44211904Y-74368214D01*
X44307142Y-74415833D01*
X45164285Y-74987261D02*
X45069047Y-75034880D01*
X44878571Y-75034880D01*
X44783333Y-74987261D01*
X44735714Y-74892023D01*
X44735714Y-74511071D01*
X44783333Y-74415833D01*
X44878571Y-74368214D01*
X45069047Y-74368214D01*
X45164285Y-74415833D01*
X45211904Y-74511071D01*
X45211904Y-74606309D01*
X44735714Y-74701547D01*
X45497619Y-74368214D02*
X45878571Y-74368214D01*
X45640476Y-74034880D02*
X45640476Y-74892023D01*
X45688095Y-74987261D01*
X45783333Y-75034880D01*
X45878571Y-75034880D01*
X46211904Y-74653928D02*
X46973809Y-74653928D01*
X46592857Y-75034880D02*
X46592857Y-74272976D01*
%TO.C,R7*%
X91172380Y-56216230D02*
X90696190Y-56549564D01*
X91172380Y-56787659D02*
X90172380Y-56787659D01*
X90172380Y-56406706D01*
X90220000Y-56311468D01*
X90267619Y-56263849D01*
X90362857Y-56216230D01*
X90505714Y-56216230D01*
X90600952Y-56263849D01*
X90648571Y-56311468D01*
X90696190Y-56406706D01*
X90696190Y-56787659D01*
X90172380Y-55882897D02*
X90172380Y-55216230D01*
X91172380Y-55644802D01*
%TO.C,R8*%
X91172380Y-62474166D02*
X90696190Y-62807500D01*
X91172380Y-63045595D02*
X90172380Y-63045595D01*
X90172380Y-62664642D01*
X90220000Y-62569404D01*
X90267619Y-62521785D01*
X90362857Y-62474166D01*
X90505714Y-62474166D01*
X90600952Y-62521785D01*
X90648571Y-62569404D01*
X90696190Y-62664642D01*
X90696190Y-63045595D01*
X90600952Y-61902738D02*
X90553333Y-61997976D01*
X90505714Y-62045595D01*
X90410476Y-62093214D01*
X90362857Y-62093214D01*
X90267619Y-62045595D01*
X90220000Y-61997976D01*
X90172380Y-61902738D01*
X90172380Y-61712261D01*
X90220000Y-61617023D01*
X90267619Y-61569404D01*
X90362857Y-61521785D01*
X90410476Y-61521785D01*
X90505714Y-61569404D01*
X90553333Y-61617023D01*
X90600952Y-61712261D01*
X90600952Y-61902738D01*
X90648571Y-61997976D01*
X90696190Y-62045595D01*
X90791428Y-62093214D01*
X90981904Y-62093214D01*
X91077142Y-62045595D01*
X91124761Y-61997976D01*
X91172380Y-61902738D01*
X91172380Y-61712261D01*
X91124761Y-61617023D01*
X91077142Y-61569404D01*
X90981904Y-61521785D01*
X90791428Y-61521785D01*
X90696190Y-61569404D01*
X90648571Y-61617023D01*
X90600952Y-61712261D01*
%TO.C,R10*%
X107987380Y-63600357D02*
X107511190Y-63933690D01*
X107987380Y-64171785D02*
X106987380Y-64171785D01*
X106987380Y-63790833D01*
X107035000Y-63695595D01*
X107082619Y-63647976D01*
X107177857Y-63600357D01*
X107320714Y-63600357D01*
X107415952Y-63647976D01*
X107463571Y-63695595D01*
X107511190Y-63790833D01*
X107511190Y-64171785D01*
X107987380Y-62647976D02*
X107987380Y-63219404D01*
X107987380Y-62933690D02*
X106987380Y-62933690D01*
X107130238Y-63028928D01*
X107225476Y-63124166D01*
X107273095Y-63219404D01*
X106987380Y-62028928D02*
X106987380Y-61933690D01*
X107035000Y-61838452D01*
X107082619Y-61790833D01*
X107177857Y-61743214D01*
X107368333Y-61695595D01*
X107606428Y-61695595D01*
X107796904Y-61743214D01*
X107892142Y-61790833D01*
X107939761Y-61838452D01*
X107987380Y-61933690D01*
X107987380Y-62028928D01*
X107939761Y-62124166D01*
X107892142Y-62171785D01*
X107796904Y-62219404D01*
X107606428Y-62267023D01*
X107368333Y-62267023D01*
X107177857Y-62219404D01*
X107082619Y-62171785D01*
X107035000Y-62124166D01*
X106987380Y-62028928D01*
%TO.C,R1*%
X51859880Y-79149166D02*
X51383690Y-79482500D01*
X51859880Y-79720595D02*
X50859880Y-79720595D01*
X50859880Y-79339642D01*
X50907500Y-79244404D01*
X50955119Y-79196785D01*
X51050357Y-79149166D01*
X51193214Y-79149166D01*
X51288452Y-79196785D01*
X51336071Y-79244404D01*
X51383690Y-79339642D01*
X51383690Y-79720595D01*
X51859880Y-78196785D02*
X51859880Y-78768214D01*
X51859880Y-78482500D02*
X50859880Y-78482500D01*
X51002738Y-78577738D01*
X51097976Y-78672976D01*
X51145595Y-78768214D01*
%TO.C,Q14*%
X104192619Y-47228928D02*
X104145000Y-47324166D01*
X104049761Y-47419404D01*
X103906904Y-47562261D01*
X103859285Y-47657500D01*
X103859285Y-47752738D01*
X104097380Y-47705119D02*
X104049761Y-47800357D01*
X103954523Y-47895595D01*
X103764047Y-47943214D01*
X103430714Y-47943214D01*
X103240238Y-47895595D01*
X103145000Y-47800357D01*
X103097380Y-47705119D01*
X103097380Y-47514642D01*
X103145000Y-47419404D01*
X103240238Y-47324166D01*
X103430714Y-47276547D01*
X103764047Y-47276547D01*
X103954523Y-47324166D01*
X104049761Y-47419404D01*
X104097380Y-47514642D01*
X104097380Y-47705119D01*
X104097380Y-46324166D02*
X104097380Y-46895595D01*
X104097380Y-46609880D02*
X103097380Y-46609880D01*
X103240238Y-46705119D01*
X103335476Y-46800357D01*
X103383095Y-46895595D01*
X103430714Y-45467023D02*
X104097380Y-45467023D01*
X103049761Y-45705119D02*
X103764047Y-45943214D01*
X103764047Y-45324166D01*
%TO.C,Q5*%
X50605119Y-72092738D02*
X50557500Y-72187976D01*
X50462261Y-72283214D01*
X50319404Y-72426071D01*
X50271785Y-72521309D01*
X50271785Y-72616547D01*
X50509880Y-72568928D02*
X50462261Y-72664166D01*
X50367023Y-72759404D01*
X50176547Y-72807023D01*
X49843214Y-72807023D01*
X49652738Y-72759404D01*
X49557500Y-72664166D01*
X49509880Y-72568928D01*
X49509880Y-72378452D01*
X49557500Y-72283214D01*
X49652738Y-72187976D01*
X49843214Y-72140357D01*
X50176547Y-72140357D01*
X50367023Y-72187976D01*
X50462261Y-72283214D01*
X50509880Y-72378452D01*
X50509880Y-72568928D01*
X49509880Y-71235595D02*
X49509880Y-71711785D01*
X49986071Y-71759404D01*
X49938452Y-71711785D01*
X49890833Y-71616547D01*
X49890833Y-71378452D01*
X49938452Y-71283214D01*
X49986071Y-71235595D01*
X50081309Y-71187976D01*
X50319404Y-71187976D01*
X50414642Y-71235595D01*
X50462261Y-71283214D01*
X50509880Y-71378452D01*
X50509880Y-71616547D01*
X50462261Y-71711785D01*
X50414642Y-71759404D01*
%TO.C,R2*%
X63314880Y-79149166D02*
X62838690Y-79482500D01*
X63314880Y-79720595D02*
X62314880Y-79720595D01*
X62314880Y-79339642D01*
X62362500Y-79244404D01*
X62410119Y-79196785D01*
X62505357Y-79149166D01*
X62648214Y-79149166D01*
X62743452Y-79196785D01*
X62791071Y-79244404D01*
X62838690Y-79339642D01*
X62838690Y-79720595D01*
X62410119Y-78768214D02*
X62362500Y-78720595D01*
X62314880Y-78625357D01*
X62314880Y-78387261D01*
X62362500Y-78292023D01*
X62410119Y-78244404D01*
X62505357Y-78196785D01*
X62600595Y-78196785D01*
X62743452Y-78244404D01*
X63314880Y-78815833D01*
X63314880Y-78196785D01*
%TO.C,Q4*%
X61755119Y-65742738D02*
X61707500Y-65837976D01*
X61612261Y-65933214D01*
X61469404Y-66076071D01*
X61421785Y-66171309D01*
X61421785Y-66266547D01*
X61659880Y-66218928D02*
X61612261Y-66314166D01*
X61517023Y-66409404D01*
X61326547Y-66457023D01*
X60993214Y-66457023D01*
X60802738Y-66409404D01*
X60707500Y-66314166D01*
X60659880Y-66218928D01*
X60659880Y-66028452D01*
X60707500Y-65933214D01*
X60802738Y-65837976D01*
X60993214Y-65790357D01*
X61326547Y-65790357D01*
X61517023Y-65837976D01*
X61612261Y-65933214D01*
X61659880Y-66028452D01*
X61659880Y-66218928D01*
X60993214Y-64933214D02*
X61659880Y-64933214D01*
X60612261Y-65171309D02*
X61326547Y-65409404D01*
X61326547Y-64790357D01*
%TO.C,R12*%
X94347380Y-79740357D02*
X93871190Y-80073690D01*
X94347380Y-80311785D02*
X93347380Y-80311785D01*
X93347380Y-79930833D01*
X93395000Y-79835595D01*
X93442619Y-79787976D01*
X93537857Y-79740357D01*
X93680714Y-79740357D01*
X93775952Y-79787976D01*
X93823571Y-79835595D01*
X93871190Y-79930833D01*
X93871190Y-80311785D01*
X94347380Y-78787976D02*
X94347380Y-79359404D01*
X94347380Y-79073690D02*
X93347380Y-79073690D01*
X93490238Y-79168928D01*
X93585476Y-79264166D01*
X93633095Y-79359404D01*
X93442619Y-78407023D02*
X93395000Y-78359404D01*
X93347380Y-78264166D01*
X93347380Y-78026071D01*
X93395000Y-77930833D01*
X93442619Y-77883214D01*
X93537857Y-77835595D01*
X93633095Y-77835595D01*
X93775952Y-77883214D01*
X94347380Y-78454642D01*
X94347380Y-77835595D01*
%TO.C,Q20*%
X107087619Y-68608928D02*
X107040000Y-68704166D01*
X106944761Y-68799404D01*
X106801904Y-68942261D01*
X106754285Y-69037500D01*
X106754285Y-69132738D01*
X106992380Y-69085119D02*
X106944761Y-69180357D01*
X106849523Y-69275595D01*
X106659047Y-69323214D01*
X106325714Y-69323214D01*
X106135238Y-69275595D01*
X106040000Y-69180357D01*
X105992380Y-69085119D01*
X105992380Y-68894642D01*
X106040000Y-68799404D01*
X106135238Y-68704166D01*
X106325714Y-68656547D01*
X106659047Y-68656547D01*
X106849523Y-68704166D01*
X106944761Y-68799404D01*
X106992380Y-68894642D01*
X106992380Y-69085119D01*
X106087619Y-68275595D02*
X106040000Y-68227976D01*
X105992380Y-68132738D01*
X105992380Y-67894642D01*
X106040000Y-67799404D01*
X106087619Y-67751785D01*
X106182857Y-67704166D01*
X106278095Y-67704166D01*
X106420952Y-67751785D01*
X106992380Y-68323214D01*
X106992380Y-67704166D01*
X105992380Y-67085119D02*
X105992380Y-66989880D01*
X106040000Y-66894642D01*
X106087619Y-66847023D01*
X106182857Y-66799404D01*
X106373333Y-66751785D01*
X106611428Y-66751785D01*
X106801904Y-66799404D01*
X106897142Y-66847023D01*
X106944761Y-66894642D01*
X106992380Y-66989880D01*
X106992380Y-67085119D01*
X106944761Y-67180357D01*
X106897142Y-67227976D01*
X106801904Y-67275595D01*
X106611428Y-67323214D01*
X106373333Y-67323214D01*
X106182857Y-67275595D01*
X106087619Y-67227976D01*
X106040000Y-67180357D01*
X105992380Y-67085119D01*
%TO.C,Q10*%
X70700119Y-72568928D02*
X70652500Y-72664166D01*
X70557261Y-72759404D01*
X70414404Y-72902261D01*
X70366785Y-72997500D01*
X70366785Y-73092738D01*
X70604880Y-73045119D02*
X70557261Y-73140357D01*
X70462023Y-73235595D01*
X70271547Y-73283214D01*
X69938214Y-73283214D01*
X69747738Y-73235595D01*
X69652500Y-73140357D01*
X69604880Y-73045119D01*
X69604880Y-72854642D01*
X69652500Y-72759404D01*
X69747738Y-72664166D01*
X69938214Y-72616547D01*
X70271547Y-72616547D01*
X70462023Y-72664166D01*
X70557261Y-72759404D01*
X70604880Y-72854642D01*
X70604880Y-73045119D01*
X70604880Y-71664166D02*
X70604880Y-72235595D01*
X70604880Y-71949880D02*
X69604880Y-71949880D01*
X69747738Y-72045119D01*
X69842976Y-72140357D01*
X69890595Y-72235595D01*
X69604880Y-71045119D02*
X69604880Y-70949880D01*
X69652500Y-70854642D01*
X69700119Y-70807023D01*
X69795357Y-70759404D01*
X69985833Y-70711785D01*
X70223928Y-70711785D01*
X70414404Y-70759404D01*
X70509642Y-70807023D01*
X70557261Y-70854642D01*
X70604880Y-70949880D01*
X70604880Y-71045119D01*
X70557261Y-71140357D01*
X70509642Y-71187976D01*
X70414404Y-71235595D01*
X70223928Y-71283214D01*
X69985833Y-71283214D01*
X69795357Y-71235595D01*
X69700119Y-71187976D01*
X69652500Y-71140357D01*
X69604880Y-71045119D01*
%TO.C,Q15*%
X102287619Y-53368928D02*
X102240000Y-53464166D01*
X102144761Y-53559404D01*
X102001904Y-53702261D01*
X101954285Y-53797500D01*
X101954285Y-53892738D01*
X102192380Y-53845119D02*
X102144761Y-53940357D01*
X102049523Y-54035595D01*
X101859047Y-54083214D01*
X101525714Y-54083214D01*
X101335238Y-54035595D01*
X101240000Y-53940357D01*
X101192380Y-53845119D01*
X101192380Y-53654642D01*
X101240000Y-53559404D01*
X101335238Y-53464166D01*
X101525714Y-53416547D01*
X101859047Y-53416547D01*
X102049523Y-53464166D01*
X102144761Y-53559404D01*
X102192380Y-53654642D01*
X102192380Y-53845119D01*
X102192380Y-52464166D02*
X102192380Y-53035595D01*
X102192380Y-52749880D02*
X101192380Y-52749880D01*
X101335238Y-52845119D01*
X101430476Y-52940357D01*
X101478095Y-53035595D01*
X101192380Y-51559404D02*
X101192380Y-52035595D01*
X101668571Y-52083214D01*
X101620952Y-52035595D01*
X101573333Y-51940357D01*
X101573333Y-51702261D01*
X101620952Y-51607023D01*
X101668571Y-51559404D01*
X101763809Y-51511785D01*
X102001904Y-51511785D01*
X102097142Y-51559404D01*
X102144761Y-51607023D01*
X102192380Y-51702261D01*
X102192380Y-51940357D01*
X102144761Y-52035595D01*
X102097142Y-52083214D01*
%TO.C,D1*%
X51059880Y-60035595D02*
X50059880Y-60035595D01*
X50059880Y-59797500D01*
X50107500Y-59654642D01*
X50202738Y-59559404D01*
X50297976Y-59511785D01*
X50488452Y-59464166D01*
X50631309Y-59464166D01*
X50821785Y-59511785D01*
X50917023Y-59559404D01*
X51012261Y-59654642D01*
X51059880Y-59797500D01*
X51059880Y-60035595D01*
X51059880Y-58511785D02*
X51059880Y-59083214D01*
X51059880Y-58797500D02*
X50059880Y-58797500D01*
X50202738Y-58892738D01*
X50297976Y-58987976D01*
X50345595Y-59083214D01*
%TO.C,J6*%
X111585476Y-50269880D02*
X111490238Y-50222261D01*
X111442619Y-50174642D01*
X111395000Y-50079404D01*
X111395000Y-49793690D01*
X111442619Y-49698452D01*
X111490238Y-49650833D01*
X111585476Y-49603214D01*
X111728333Y-49603214D01*
X111823571Y-49650833D01*
X111871190Y-49698452D01*
X111918809Y-49793690D01*
X111918809Y-50079404D01*
X111871190Y-50174642D01*
X111823571Y-50222261D01*
X111728333Y-50269880D01*
X111585476Y-50269880D01*
X112775952Y-49603214D02*
X112775952Y-50269880D01*
X112347380Y-49603214D02*
X112347380Y-50127023D01*
X112395000Y-50222261D01*
X112490238Y-50269880D01*
X112633095Y-50269880D01*
X112728333Y-50222261D01*
X112775952Y-50174642D01*
X113109285Y-49603214D02*
X113490238Y-49603214D01*
X113252142Y-49269880D02*
X113252142Y-50127023D01*
X113299761Y-50222261D01*
X113395000Y-50269880D01*
X113490238Y-50269880D01*
%TO.C,Q6*%
X56955119Y-72092738D02*
X56907500Y-72187976D01*
X56812261Y-72283214D01*
X56669404Y-72426071D01*
X56621785Y-72521309D01*
X56621785Y-72616547D01*
X56859880Y-72568928D02*
X56812261Y-72664166D01*
X56717023Y-72759404D01*
X56526547Y-72807023D01*
X56193214Y-72807023D01*
X56002738Y-72759404D01*
X55907500Y-72664166D01*
X55859880Y-72568928D01*
X55859880Y-72378452D01*
X55907500Y-72283214D01*
X56002738Y-72187976D01*
X56193214Y-72140357D01*
X56526547Y-72140357D01*
X56717023Y-72187976D01*
X56812261Y-72283214D01*
X56859880Y-72378452D01*
X56859880Y-72568928D01*
X55859880Y-71283214D02*
X55859880Y-71473690D01*
X55907500Y-71568928D01*
X55955119Y-71616547D01*
X56097976Y-71711785D01*
X56288452Y-71759404D01*
X56669404Y-71759404D01*
X56764642Y-71711785D01*
X56812261Y-71664166D01*
X56859880Y-71568928D01*
X56859880Y-71378452D01*
X56812261Y-71283214D01*
X56764642Y-71235595D01*
X56669404Y-71187976D01*
X56431309Y-71187976D01*
X56336071Y-71235595D01*
X56288452Y-71283214D01*
X56240833Y-71378452D01*
X56240833Y-71568928D01*
X56288452Y-71664166D01*
X56336071Y-71711785D01*
X56431309Y-71759404D01*
%TO.C,Q8*%
X58580119Y-46102738D02*
X58532500Y-46197976D01*
X58437261Y-46293214D01*
X58294404Y-46436071D01*
X58246785Y-46531309D01*
X58246785Y-46626547D01*
X58484880Y-46578928D02*
X58437261Y-46674166D01*
X58342023Y-46769404D01*
X58151547Y-46817023D01*
X57818214Y-46817023D01*
X57627738Y-46769404D01*
X57532500Y-46674166D01*
X57484880Y-46578928D01*
X57484880Y-46388452D01*
X57532500Y-46293214D01*
X57627738Y-46197976D01*
X57818214Y-46150357D01*
X58151547Y-46150357D01*
X58342023Y-46197976D01*
X58437261Y-46293214D01*
X58484880Y-46388452D01*
X58484880Y-46578928D01*
X57913452Y-45578928D02*
X57865833Y-45674166D01*
X57818214Y-45721785D01*
X57722976Y-45769404D01*
X57675357Y-45769404D01*
X57580119Y-45721785D01*
X57532500Y-45674166D01*
X57484880Y-45578928D01*
X57484880Y-45388452D01*
X57532500Y-45293214D01*
X57580119Y-45245595D01*
X57675357Y-45197976D01*
X57722976Y-45197976D01*
X57818214Y-45245595D01*
X57865833Y-45293214D01*
X57913452Y-45388452D01*
X57913452Y-45578928D01*
X57961071Y-45674166D01*
X58008690Y-45721785D01*
X58103928Y-45769404D01*
X58294404Y-45769404D01*
X58389642Y-45721785D01*
X58437261Y-45674166D01*
X58484880Y-45578928D01*
X58484880Y-45388452D01*
X58437261Y-45293214D01*
X58389642Y-45245595D01*
X58294404Y-45197976D01*
X58103928Y-45197976D01*
X58008690Y-45245595D01*
X57961071Y-45293214D01*
X57913452Y-45388452D01*
%TO.C,Q3*%
X55405119Y-65742738D02*
X55357500Y-65837976D01*
X55262261Y-65933214D01*
X55119404Y-66076071D01*
X55071785Y-66171309D01*
X55071785Y-66266547D01*
X55309880Y-66218928D02*
X55262261Y-66314166D01*
X55167023Y-66409404D01*
X54976547Y-66457023D01*
X54643214Y-66457023D01*
X54452738Y-66409404D01*
X54357500Y-66314166D01*
X54309880Y-66218928D01*
X54309880Y-66028452D01*
X54357500Y-65933214D01*
X54452738Y-65837976D01*
X54643214Y-65790357D01*
X54976547Y-65790357D01*
X55167023Y-65837976D01*
X55262261Y-65933214D01*
X55309880Y-66028452D01*
X55309880Y-66218928D01*
X54309880Y-65457023D02*
X54309880Y-64837976D01*
X54690833Y-65171309D01*
X54690833Y-65028452D01*
X54738452Y-64933214D01*
X54786071Y-64885595D01*
X54881309Y-64837976D01*
X55119404Y-64837976D01*
X55214642Y-64885595D01*
X55262261Y-64933214D01*
X55309880Y-65028452D01*
X55309880Y-65314166D01*
X55262261Y-65409404D01*
X55214642Y-65457023D01*
%TO.C,Q12*%
X81687619Y-46578928D02*
X81640000Y-46674166D01*
X81544761Y-46769404D01*
X81401904Y-46912261D01*
X81354285Y-47007500D01*
X81354285Y-47102738D01*
X81592380Y-47055119D02*
X81544761Y-47150357D01*
X81449523Y-47245595D01*
X81259047Y-47293214D01*
X80925714Y-47293214D01*
X80735238Y-47245595D01*
X80640000Y-47150357D01*
X80592380Y-47055119D01*
X80592380Y-46864642D01*
X80640000Y-46769404D01*
X80735238Y-46674166D01*
X80925714Y-46626547D01*
X81259047Y-46626547D01*
X81449523Y-46674166D01*
X81544761Y-46769404D01*
X81592380Y-46864642D01*
X81592380Y-47055119D01*
X81592380Y-45674166D02*
X81592380Y-46245595D01*
X81592380Y-45959880D02*
X80592380Y-45959880D01*
X80735238Y-46055119D01*
X80830476Y-46150357D01*
X80878095Y-46245595D01*
X80687619Y-45293214D02*
X80640000Y-45245595D01*
X80592380Y-45150357D01*
X80592380Y-44912261D01*
X80640000Y-44817023D01*
X80687619Y-44769404D01*
X80782857Y-44721785D01*
X80878095Y-44721785D01*
X81020952Y-44769404D01*
X81592380Y-45340833D01*
X81592380Y-44721785D01*
%TO.C,R4*%
X75132380Y-79264166D02*
X74656190Y-79597500D01*
X75132380Y-79835595D02*
X74132380Y-79835595D01*
X74132380Y-79454642D01*
X74180000Y-79359404D01*
X74227619Y-79311785D01*
X74322857Y-79264166D01*
X74465714Y-79264166D01*
X74560952Y-79311785D01*
X74608571Y-79359404D01*
X74656190Y-79454642D01*
X74656190Y-79835595D01*
X74465714Y-78407023D02*
X75132380Y-78407023D01*
X74084761Y-78645119D02*
X74799047Y-78883214D01*
X74799047Y-78264166D01*
%TO.C,Q2*%
X56955119Y-52407738D02*
X56907500Y-52502976D01*
X56812261Y-52598214D01*
X56669404Y-52741071D01*
X56621785Y-52836309D01*
X56621785Y-52931547D01*
X56859880Y-52883928D02*
X56812261Y-52979166D01*
X56717023Y-53074404D01*
X56526547Y-53122023D01*
X56193214Y-53122023D01*
X56002738Y-53074404D01*
X55907500Y-52979166D01*
X55859880Y-52883928D01*
X55859880Y-52693452D01*
X55907500Y-52598214D01*
X56002738Y-52502976D01*
X56193214Y-52455357D01*
X56526547Y-52455357D01*
X56717023Y-52502976D01*
X56812261Y-52598214D01*
X56859880Y-52693452D01*
X56859880Y-52883928D01*
X55955119Y-52074404D02*
X55907500Y-52026785D01*
X55859880Y-51931547D01*
X55859880Y-51693452D01*
X55907500Y-51598214D01*
X55955119Y-51550595D01*
X56050357Y-51502976D01*
X56145595Y-51502976D01*
X56288452Y-51550595D01*
X56859880Y-52122023D01*
X56859880Y-51502976D01*
%TO.C,Q9*%
X75337619Y-46102738D02*
X75290000Y-46197976D01*
X75194761Y-46293214D01*
X75051904Y-46436071D01*
X75004285Y-46531309D01*
X75004285Y-46626547D01*
X75242380Y-46578928D02*
X75194761Y-46674166D01*
X75099523Y-46769404D01*
X74909047Y-46817023D01*
X74575714Y-46817023D01*
X74385238Y-46769404D01*
X74290000Y-46674166D01*
X74242380Y-46578928D01*
X74242380Y-46388452D01*
X74290000Y-46293214D01*
X74385238Y-46197976D01*
X74575714Y-46150357D01*
X74909047Y-46150357D01*
X75099523Y-46197976D01*
X75194761Y-46293214D01*
X75242380Y-46388452D01*
X75242380Y-46578928D01*
X75242380Y-45674166D02*
X75242380Y-45483690D01*
X75194761Y-45388452D01*
X75147142Y-45340833D01*
X75004285Y-45245595D01*
X74813809Y-45197976D01*
X74432857Y-45197976D01*
X74337619Y-45245595D01*
X74290000Y-45293214D01*
X74242380Y-45388452D01*
X74242380Y-45578928D01*
X74290000Y-45674166D01*
X74337619Y-45721785D01*
X74432857Y-45769404D01*
X74670952Y-45769404D01*
X74766190Y-45721785D01*
X74813809Y-45674166D01*
X74861428Y-45578928D01*
X74861428Y-45388452D01*
X74813809Y-45293214D01*
X74766190Y-45245595D01*
X74670952Y-45197976D01*
%TO.C,R11*%
X100392380Y-79740357D02*
X99916190Y-80073690D01*
X100392380Y-80311785D02*
X99392380Y-80311785D01*
X99392380Y-79930833D01*
X99440000Y-79835595D01*
X99487619Y-79787976D01*
X99582857Y-79740357D01*
X99725714Y-79740357D01*
X99820952Y-79787976D01*
X99868571Y-79835595D01*
X99916190Y-79930833D01*
X99916190Y-80311785D01*
X100392380Y-78787976D02*
X100392380Y-79359404D01*
X100392380Y-79073690D02*
X99392380Y-79073690D01*
X99535238Y-79168928D01*
X99630476Y-79264166D01*
X99678095Y-79359404D01*
X100392380Y-77835595D02*
X100392380Y-78407023D01*
X100392380Y-78121309D02*
X99392380Y-78121309D01*
X99535238Y-78216547D01*
X99630476Y-78311785D01*
X99678095Y-78407023D01*
%TO.C,R9*%
X103973333Y-56509880D02*
X103640000Y-56033690D01*
X103401904Y-56509880D02*
X103401904Y-55509880D01*
X103782857Y-55509880D01*
X103878095Y-55557500D01*
X103925714Y-55605119D01*
X103973333Y-55700357D01*
X103973333Y-55843214D01*
X103925714Y-55938452D01*
X103878095Y-55986071D01*
X103782857Y-56033690D01*
X103401904Y-56033690D01*
X104449523Y-56509880D02*
X104640000Y-56509880D01*
X104735238Y-56462261D01*
X104782857Y-56414642D01*
X104878095Y-56271785D01*
X104925714Y-56081309D01*
X104925714Y-55700357D01*
X104878095Y-55605119D01*
X104830476Y-55557500D01*
X104735238Y-55509880D01*
X104544761Y-55509880D01*
X104449523Y-55557500D01*
X104401904Y-55605119D01*
X104354285Y-55700357D01*
X104354285Y-55938452D01*
X104401904Y-56033690D01*
X104449523Y-56081309D01*
X104544761Y-56128928D01*
X104735238Y-56128928D01*
X104830476Y-56081309D01*
X104878095Y-56033690D01*
X104925714Y-55938452D01*
%TO.C,J5*%
X66341666Y-74034880D02*
X66341666Y-74749166D01*
X66294047Y-74892023D01*
X66198809Y-74987261D01*
X66055952Y-75034880D01*
X65960714Y-75034880D01*
X67294047Y-74034880D02*
X66817857Y-74034880D01*
X66770238Y-74511071D01*
X66817857Y-74463452D01*
X66913095Y-74415833D01*
X67151190Y-74415833D01*
X67246428Y-74463452D01*
X67294047Y-74511071D01*
X67341666Y-74606309D01*
X67341666Y-74844404D01*
X67294047Y-74939642D01*
X67246428Y-74987261D01*
X67151190Y-75034880D01*
X66913095Y-75034880D01*
X66817857Y-74987261D01*
X66770238Y-74939642D01*
%TO.C,R3*%
X57739880Y-79149166D02*
X57263690Y-79482500D01*
X57739880Y-79720595D02*
X56739880Y-79720595D01*
X56739880Y-79339642D01*
X56787500Y-79244404D01*
X56835119Y-79196785D01*
X56930357Y-79149166D01*
X57073214Y-79149166D01*
X57168452Y-79196785D01*
X57216071Y-79244404D01*
X57263690Y-79339642D01*
X57263690Y-79720595D01*
X56739880Y-78815833D02*
X56739880Y-78196785D01*
X57120833Y-78530119D01*
X57120833Y-78387261D01*
X57168452Y-78292023D01*
X57216071Y-78244404D01*
X57311309Y-78196785D01*
X57549404Y-78196785D01*
X57644642Y-78244404D01*
X57692261Y-78292023D01*
X57739880Y-78387261D01*
X57739880Y-78672976D01*
X57692261Y-78768214D01*
X57644642Y-78815833D01*
%TO.C,Q16*%
X89587619Y-72403928D02*
X89540000Y-72499166D01*
X89444761Y-72594404D01*
X89301904Y-72737261D01*
X89254285Y-72832500D01*
X89254285Y-72927738D01*
X89492380Y-72880119D02*
X89444761Y-72975357D01*
X89349523Y-73070595D01*
X89159047Y-73118214D01*
X88825714Y-73118214D01*
X88635238Y-73070595D01*
X88540000Y-72975357D01*
X88492380Y-72880119D01*
X88492380Y-72689642D01*
X88540000Y-72594404D01*
X88635238Y-72499166D01*
X88825714Y-72451547D01*
X89159047Y-72451547D01*
X89349523Y-72499166D01*
X89444761Y-72594404D01*
X89492380Y-72689642D01*
X89492380Y-72880119D01*
X89492380Y-71499166D02*
X89492380Y-72070595D01*
X89492380Y-71784880D02*
X88492380Y-71784880D01*
X88635238Y-71880119D01*
X88730476Y-71975357D01*
X88778095Y-72070595D01*
X88492380Y-70642023D02*
X88492380Y-70832500D01*
X88540000Y-70927738D01*
X88587619Y-70975357D01*
X88730476Y-71070595D01*
X88920952Y-71118214D01*
X89301904Y-71118214D01*
X89397142Y-71070595D01*
X89444761Y-71022976D01*
X89492380Y-70927738D01*
X89492380Y-70737261D01*
X89444761Y-70642023D01*
X89397142Y-70594404D01*
X89301904Y-70546785D01*
X89063809Y-70546785D01*
X88968571Y-70594404D01*
X88920952Y-70642023D01*
X88873333Y-70737261D01*
X88873333Y-70927738D01*
X88920952Y-71022976D01*
X88968571Y-71070595D01*
X89063809Y-71118214D01*
D15*
%TO.C,J14*%
X113725000Y-72390000D02*
X113725000Y-73720000D01*
X113725000Y-71120000D02*
X113725000Y-71060000D01*
X111065000Y-71120000D02*
X111065000Y-71060000D01*
X113725000Y-71060000D02*
X111065000Y-71060000D01*
X113725000Y-71120000D02*
X111065000Y-71120000D01*
X113725000Y-73720000D02*
X112395000Y-73720000D01*
%TO.C,J13*%
X113725000Y-45720000D02*
X113725000Y-47050000D01*
X113725000Y-44450000D02*
X113725000Y-44390000D01*
X111065000Y-44450000D02*
X111065000Y-44390000D01*
X113725000Y-44390000D02*
X111065000Y-44390000D01*
X113725000Y-44450000D02*
X111065000Y-44450000D01*
X113725000Y-47050000D02*
X112395000Y-47050000D01*
%TO.C,J12*%
X44450000Y-66652500D02*
X43120000Y-66652500D01*
X43120000Y-66652500D02*
X43120000Y-65322500D01*
X43120000Y-64112500D02*
X43120000Y-63992500D01*
X45780000Y-63992500D02*
X43120000Y-63992500D01*
X45780000Y-64112500D02*
X45780000Y-63992500D01*
%TO.C,J11*%
X112395000Y-66735000D02*
X111065000Y-66735000D01*
X111065000Y-66735000D02*
X111065000Y-65405000D01*
X111065000Y-64195000D02*
X111065000Y-64075000D01*
X113725000Y-64075000D02*
X111065000Y-64075000D01*
X113725000Y-64195000D02*
X113725000Y-64075000D01*
%TO.C,J10*%
X112395000Y-59750000D02*
X111065000Y-59750000D01*
X111065000Y-59750000D02*
X111065000Y-58420000D01*
X111065000Y-57210000D02*
X111065000Y-57090000D01*
X113725000Y-57090000D02*
X111065000Y-57090000D01*
X113725000Y-57210000D02*
X113725000Y-57090000D01*
%TO.C,J9*%
X65345000Y-59630000D02*
X65345000Y-59750000D01*
X65345000Y-59750000D02*
X68005000Y-59750000D01*
X68005000Y-59630000D02*
X68005000Y-59750000D01*
X68005000Y-57090000D02*
X68005000Y-58420000D01*
X66675000Y-57090000D02*
X68005000Y-57090000D01*
%TO.C,J8*%
X44450000Y-59750000D02*
X43120000Y-59750000D01*
X43120000Y-59750000D02*
X43120000Y-58420000D01*
X43120000Y-57210000D02*
X43120000Y-57090000D01*
X45780000Y-57090000D02*
X43120000Y-57090000D01*
X45780000Y-57210000D02*
X45780000Y-57090000D01*
%TO.C,J7*%
X44450000Y-47127500D02*
X43120000Y-47127500D01*
X43120000Y-47127500D02*
X43120000Y-45797500D01*
X43120000Y-44587500D02*
X43120000Y-44467500D01*
X45780000Y-44467500D02*
X43120000Y-44467500D01*
X45780000Y-44587500D02*
X45780000Y-44467500D01*
%TO.C,J4*%
X45780000Y-82052500D02*
X45780000Y-81932500D01*
X45780000Y-81932500D02*
X43120000Y-81932500D01*
X43120000Y-82052500D02*
X43120000Y-81932500D01*
X43120000Y-84592500D02*
X43120000Y-83262500D01*
X44450000Y-84592500D02*
X43120000Y-84592500D01*
%TO.C,J3*%
X45780000Y-52147500D02*
X45780000Y-53477500D01*
X45780000Y-50877500D02*
X45780000Y-50817500D01*
X43120000Y-50877500D02*
X43120000Y-50817500D01*
X45780000Y-50817500D02*
X43120000Y-50817500D01*
X45780000Y-50877500D02*
X43120000Y-50877500D01*
X45780000Y-53477500D02*
X44450000Y-53477500D01*
%TO.C,C1*%
X85365000Y-58421248D02*
X85365000Y-59843752D01*
X83545000Y-58421248D02*
X83545000Y-59843752D01*
%TO.C,D2*%
X59657500Y-60697500D02*
X59657500Y-58147500D01*
X57957500Y-60697500D02*
X59657500Y-60697500D01*
X57957500Y-60697500D02*
X57957500Y-58147500D01*
%TO.C,Q17*%
X96230000Y-71832500D02*
X96230000Y-73507500D01*
X99350000Y-71832500D02*
X99350000Y-71182500D01*
X96230000Y-71832500D02*
X96230000Y-71182500D01*
X99350000Y-71832500D02*
X99350000Y-72482500D01*
%TO.C,Q22*%
X86650000Y-71832500D02*
X86650000Y-71182500D01*
X86650000Y-71832500D02*
X86650000Y-72482500D01*
X83530000Y-71832500D02*
X83530000Y-71182500D01*
X83530000Y-71832500D02*
X83530000Y-73507500D01*
%TO.C,Q11*%
X80300000Y-71832500D02*
X80300000Y-71182500D01*
X77180000Y-71832500D02*
X77180000Y-71182500D01*
X80300000Y-71832500D02*
X80300000Y-72482500D01*
X77180000Y-71832500D02*
X77180000Y-73507500D01*
%TO.C,Q7*%
X47667500Y-70485000D02*
X47667500Y-71135000D01*
X44547500Y-70485000D02*
X44547500Y-72160000D01*
X44547500Y-70485000D02*
X44547500Y-69835000D01*
X47667500Y-70485000D02*
X47667500Y-69835000D01*
%TO.C,Q13*%
X87340000Y-46007500D02*
X87340000Y-45357500D01*
X87340000Y-46007500D02*
X87340000Y-46657500D01*
X90460000Y-46007500D02*
X90460000Y-46657500D01*
X90460000Y-46007500D02*
X90460000Y-44332500D01*
%TO.C,Q1*%
X54017500Y-52312500D02*
X54017500Y-51662500D01*
X50897500Y-52312500D02*
X50897500Y-51662500D01*
X54017500Y-52312500D02*
X54017500Y-52962500D01*
X50897500Y-52312500D02*
X50897500Y-53987500D01*
%TO.C,Q18*%
X92420000Y-59132500D02*
X92420000Y-58482500D01*
X95540000Y-59132500D02*
X95540000Y-59782500D01*
X95540000Y-59132500D02*
X95540000Y-58482500D01*
X92420000Y-59132500D02*
X92420000Y-60807500D01*
%TO.C,R5*%
X77830000Y-58405436D02*
X77830000Y-59859564D01*
X79650000Y-58405436D02*
X79650000Y-59859564D01*
%TO.C,J2*%
X65345000Y-50817500D02*
X66675000Y-50817500D01*
X65345000Y-52147500D02*
X65345000Y-50817500D01*
X65345000Y-53417500D02*
X65345000Y-53477500D01*
X65345000Y-53417500D02*
X68005000Y-53417500D01*
X65345000Y-53477500D02*
X68005000Y-53477500D01*
X68005000Y-53417500D02*
X68005000Y-53477500D01*
%TO.C,J1*%
X45780000Y-75642500D02*
X43120000Y-75642500D01*
X45780000Y-76912500D02*
X45780000Y-78242500D01*
X45780000Y-78242500D02*
X44450000Y-78242500D01*
X45780000Y-75582500D02*
X43120000Y-75582500D01*
X45780000Y-75642500D02*
X45780000Y-75582500D01*
X43120000Y-75642500D02*
X43120000Y-75582500D01*
%TO.C,R7*%
X89810000Y-55322500D02*
X89810000Y-56776628D01*
X87990000Y-55322500D02*
X87990000Y-56776628D01*
%TO.C,R8*%
X87990000Y-61580436D02*
X87990000Y-63034564D01*
X89810000Y-61580436D02*
X89810000Y-63034564D01*
%TO.C,R10*%
X106625000Y-62230436D02*
X106625000Y-63684564D01*
X104805000Y-62230436D02*
X104805000Y-63684564D01*
%TO.C,R1*%
X50497500Y-78255436D02*
X50497500Y-79709564D01*
X48677500Y-78255436D02*
X48677500Y-79709564D01*
%TO.C,Q14*%
X107605000Y-46657500D02*
X107605000Y-47307500D01*
X104485000Y-46657500D02*
X104485000Y-46007500D01*
X104485000Y-46657500D02*
X104485000Y-48332500D01*
X107605000Y-46657500D02*
X107605000Y-46007500D01*
%TO.C,Q5*%
X50897500Y-71997500D02*
X50897500Y-73672500D01*
X50897500Y-71997500D02*
X50897500Y-71347500D01*
X54017500Y-71997500D02*
X54017500Y-71347500D01*
X54017500Y-71997500D02*
X54017500Y-72647500D01*
%TO.C,R2*%
X60132500Y-78255436D02*
X60132500Y-79709564D01*
X61952500Y-78255436D02*
X61952500Y-79709564D01*
%TO.C,Q4*%
X57247500Y-65647500D02*
X57247500Y-66297500D01*
X60367500Y-65647500D02*
X60367500Y-66297500D01*
X60367500Y-65647500D02*
X60367500Y-63972500D01*
X57247500Y-65647500D02*
X57247500Y-64997500D01*
%TO.C,R12*%
X92985000Y-78370436D02*
X92985000Y-79824564D01*
X91165000Y-78370436D02*
X91165000Y-79824564D01*
%TO.C,Q20*%
X102580000Y-68037500D02*
X102580000Y-68687500D01*
X105700000Y-68037500D02*
X105700000Y-66362500D01*
X102580000Y-68037500D02*
X102580000Y-67387500D01*
X105700000Y-68037500D02*
X105700000Y-68687500D01*
%TO.C,Q10*%
X74112500Y-71997500D02*
X74112500Y-71347500D01*
X74112500Y-71997500D02*
X74112500Y-72647500D01*
X70992500Y-71997500D02*
X70992500Y-73672500D01*
X70992500Y-71997500D02*
X70992500Y-71347500D01*
%TO.C,Q15*%
X102580000Y-52797500D02*
X102580000Y-52147500D01*
X105700000Y-52797500D02*
X105700000Y-52147500D01*
X102580000Y-52797500D02*
X102580000Y-54472500D01*
X105700000Y-52797500D02*
X105700000Y-53447500D01*
%TO.C,D1*%
X51607500Y-60797500D02*
X53307500Y-60797500D01*
X53307500Y-60797500D02*
X53307500Y-58247500D01*
X51607500Y-60797500D02*
X51607500Y-58247500D01*
%TO.C,J6*%
X113725000Y-50877500D02*
X111065000Y-50877500D01*
X113725000Y-52147500D02*
X113725000Y-53477500D01*
X113725000Y-50877500D02*
X113725000Y-50817500D01*
X111065000Y-50877500D02*
X111065000Y-50817500D01*
X113725000Y-53477500D02*
X112395000Y-53477500D01*
X113725000Y-50817500D02*
X111065000Y-50817500D01*
%TO.C,Q6*%
X57247500Y-71997500D02*
X57247500Y-71347500D01*
X60367500Y-71997500D02*
X60367500Y-71347500D01*
X57247500Y-71997500D02*
X57247500Y-73672500D01*
X60367500Y-71997500D02*
X60367500Y-72647500D01*
%TO.C,Q8*%
X57192500Y-46007500D02*
X57192500Y-44332500D01*
X54072500Y-46007500D02*
X54072500Y-46657500D01*
X57192500Y-46007500D02*
X57192500Y-46657500D01*
X54072500Y-46007500D02*
X54072500Y-45357500D01*
%TO.C,Q3*%
X54017500Y-65647500D02*
X54017500Y-63972500D01*
X50897500Y-65647500D02*
X50897500Y-64997500D01*
X50897500Y-65647500D02*
X50897500Y-66297500D01*
X54017500Y-65647500D02*
X54017500Y-66297500D01*
%TO.C,Q12*%
X80300000Y-46007500D02*
X80300000Y-44332500D01*
X77180000Y-46007500D02*
X77180000Y-45357500D01*
X80300000Y-46007500D02*
X80300000Y-46657500D01*
X77180000Y-46007500D02*
X77180000Y-46657500D01*
%TO.C,R4*%
X71950000Y-78370436D02*
X71950000Y-79824564D01*
X73770000Y-78370436D02*
X73770000Y-79824564D01*
%TO.C,Q2*%
X57247500Y-52312500D02*
X57247500Y-51662500D01*
X57247500Y-52312500D02*
X57247500Y-53987500D01*
X60367500Y-52312500D02*
X60367500Y-52962500D01*
X60367500Y-52312500D02*
X60367500Y-51662500D01*
%TO.C,Q9*%
X70830000Y-46007500D02*
X70830000Y-46657500D01*
X70830000Y-46007500D02*
X70830000Y-45357500D01*
X73950000Y-46007500D02*
X73950000Y-46657500D01*
X73950000Y-46007500D02*
X73950000Y-44332500D01*
%TO.C,R11*%
X99030000Y-78370436D02*
X99030000Y-79824564D01*
X97210000Y-78370436D02*
X97210000Y-79824564D01*
%TO.C,R9*%
X103412936Y-58787500D02*
X104867064Y-58787500D01*
X103412936Y-56967500D02*
X104867064Y-56967500D01*
%TO.C,J5*%
X65345000Y-78242500D02*
X68005000Y-78242500D01*
X65345000Y-76912500D02*
X65345000Y-75582500D01*
X65345000Y-78182500D02*
X68005000Y-78182500D01*
X68005000Y-78182500D02*
X68005000Y-78242500D01*
X65345000Y-78182500D02*
X65345000Y-78242500D01*
X65345000Y-75582500D02*
X66675000Y-75582500D01*
%TO.C,R3*%
X54557500Y-78255436D02*
X54557500Y-79709564D01*
X56377500Y-78255436D02*
X56377500Y-79709564D01*
%TO.C,Q16*%
X93000000Y-71832500D02*
X93000000Y-72482500D01*
X89880000Y-71832500D02*
X89880000Y-73507500D01*
X89880000Y-71832500D02*
X89880000Y-71182500D01*
X93000000Y-71832500D02*
X93000000Y-71182500D01*
%TD*%
M02*
