M48
; DRILL file {KiCad (6.0.10)} date Thu May 18 02:01:47 2023
; FORMAT={-:-/ absolute / inch / decimal}
; #@! TF.CreationDate,2023-05-18T02:01:47+05:30
; #@! TF.GenerationSoftware,Kicad,Pcbnew,(6.0.10)
; #@! TF.FileFunction,Plated,1,2,PTH
FMAT,2
INCH
; #@! TA.AperFunction,Plated,PTH,ViaDrill
T1C0.0197
; #@! TA.AperFunction,Plated,PTH,ComponentDrill
T2C0.0394
%
G90
G05
T1
X1.9153Y-3.2345
X1.9403Y-2.7345
X1.9403Y-2.9595
X1.9903Y-2.1595
X1.9903Y-3.2345
X2.1403Y-3.2345
X2.1903Y-2.9595
X2.2153Y-2.4845
X2.2153Y-3.2345
X2.2403Y-2.1595
X2.325Y-1.9531
X2.3653Y-3.2345
X2.4403Y-2.4845
X2.4403Y-3.2345
X2.775Y-2.9281
X2.8218Y-3.2313
X2.85Y-2.53
X2.85Y-2.71
X2.8968Y-3.2313
X2.9Y-1.7031
X3.025Y-2.9281
X3.1Y-2.53
X3.1Y-2.71
X3.1Y-2.9531
X3.175Y-1.7031
X3.175Y-2.9531
X3.275Y-3.0031
X3.4Y-2.9531
X3.5685Y-3.2345
X3.575Y-1.7031
X3.6435Y-3.2345
X3.8Y-3.0031
X3.8185Y-3.2345
X3.85Y-2.7031
X3.8935Y-3.2345
X3.975Y-2.1781
X4.05Y-2.8031
X4.125Y-2.8031
X4.25Y-2.6281
X4.3Y-1.9531
T2
X1.75Y-1.8031
X1.75Y-2.0531
X1.75Y-2.3
X1.75Y-2.5718
X1.75Y-3.0281
X1.75Y-3.2781
X2.625Y-2.0531
X2.625Y-2.3
X2.625Y-3.0281
X4.425Y-1.8
X4.425Y-2.0531
X4.425Y-2.3
X4.425Y-2.575
X4.425Y-2.85
T0
M30
